<svg width="1323" height="460" viewBox="0 0 1323 460" fill="none" xmlns="http://www.w3.org/2000/svg">
<path fill-rule="evenodd" clip-rule="evenodd" d="M615.516 10.1895C614.301 4.64331 614.382 2.21643 615.813 1.30508C616.898 0.616049 637.068 0.0407298 660.636 0.0254557L703.488 0V4.73494C703.488 7.33832 702.342 13.8671 700.942 19.2436C698.772 27.5798 698.397 51.4413 698.397 181.564C698.397 265.465 699.057 335.88 699.863 338.04C700.669 340.201 701.86 345.596 702.512 350.03L703.697 358.092H659.275H614.853L615.957 352.576C616.567 349.542 617.743 343.242 618.573 338.575C620.516 327.647 620.591 45.3996 618.654 29.6995C617.848 23.1656 616.436 14.3865 615.516 10.1895ZM491.348 8.46523C503.016 7.44356 515.617 5.96028 519.351 5.16943C523.084 4.37857 530.693 3.84566 536.259 3.98653C546.284 4.24109 546.389 4.29539 547.523 9.86703C548.151 12.9609 548.943 28.2349 549.283 43.8094L549.899 72.1275L545.656 71.4486C529.299 68.8351 475.922 71.5844 452.508 76.2464C447.48 77.2477 440.56 78.0674 437.134 78.0674C433.706 78.0674 429.468 79.1145 427.718 80.3941C424.726 82.5834 424.657 83.7731 426.556 100.335C427.666 110.024 429.254 124.059 430.084 131.527C430.914 138.994 432.406 147.171 433.399 149.699C433.837 150.815 434.112 151.691 434.662 152.332C436.68 154.69 442.4 153.879 473.529 150.137C484.73 148.791 497.331 147.367 501.531 146.972C512.584 145.935 523.575 143.255 525.766 141.064C530.224 136.606 532.079 139.074 532.079 149.458C532.079 155.12 532.739 161.038 533.547 162.611C534.355 164.182 535.521 176.634 536.139 190.279L537.264 215.089L517.94 214.237C505.063 213.669 491.603 214.314 477.586 216.169C466.021 217.701 453.884 219.138 450.617 219.364L444.678 219.777L444.939 230.808C445.083 236.875 446.468 250.622 448.017 261.356C449.567 272.09 451.424 286.412 452.147 293.184C452.868 299.953 453.966 306.002 454.587 306.621C455.208 307.243 464.688 306.762 475.653 305.554C486.618 304.346 502.083 302.767 510.017 302.048C537.602 299.544 554.298 295.572 566.848 288.522C570.347 286.556 573.692 285.43 574.283 286.015C575.315 287.042 576.157 296.995 578.823 339.7L580.058 359.492L568.374 360.369C528.892 363.336 512.735 364.771 500.682 366.384C493.215 367.383 483.669 368.558 479.468 368.996C460.843 370.937 416.937 377.206 402.25 380.022C394.048 381.594 390.095 382.562 388.094 381.011C386.037 379.416 386.045 375.157 385.621 366.153C385.216 357.52 383.564 342.054 381.954 331.786C380.343 321.519 378.383 308.536 377.596 302.935C376.808 297.335 374.938 284.352 373.436 274.084C371.936 263.817 370.049 250.07 369.242 243.536C368.436 237.002 367.292 229.747 366.702 227.414C366.11 225.08 364.923 217.825 364.061 211.291C362.622 200.351 359.08 175.584 355.689 152.74C354.927 147.607 353.424 136.915 352.346 128.981C351.27 121.047 349.646 111.299 348.741 107.319C347.835 103.337 347.093 98.0577 347.093 95.585C347.093 87.7019 341.875 60.6057 338.326 50.0649C332.731 33.4434 332.602 31.1879 337.177 29.9626C339.365 29.3771 343.39 28.8866 346.124 28.8748C348.858 28.8612 353.441 28.145 356.307 27.2829C361.931 25.5908 380.79 22.3561 397.158 20.2755C402.759 19.5627 415.742 17.723 426.009 16.1854C450.746 12.4823 465.8 10.7037 491.348 8.46523ZM792.41 20.0497C791.857 12.8743 791.947 6.1266 792.61 5.05232C793.309 3.92204 795.348 3.57921 797.445 4.23769C799.439 4.86562 810.618 6.08585 822.286 6.95138C833.954 7.81521 846.702 9.27814 850.616 10.2014C854.53 11.1246 861.464 11.8798 866.028 11.8798C869.069 11.8798 871.098 11.6813 872.734 12.3893C876.617 14.0695 878.292 20.8557 886.059 47.5193C887.554 52.653 889.385 58.3808 890.125 60.2476C890.867 62.1145 892.815 68.2241 894.454 73.8246C896.094 79.4251 898.003 85.5347 898.697 87.4015C899.391 89.2683 901.289 95.378 902.913 100.978C904.539 106.579 906.483 112.403 907.237 113.922C907.99 115.441 909.127 119.458 909.764 122.851C910.4 126.243 911.598 129.437 912.425 129.948C913.253 130.459 913.93 132.526 913.93 134.541C913.93 137.728 915.991 144.598 920.661 156.983C921.89 160.243 924.344 168.332 930.184 188.38C931.679 193.514 933.51 199.241 934.25 201.108C934.992 202.975 936.94 209.085 938.579 214.685C944.685 235.546 946.771 236.267 948.725 218.19C949.337 212.528 950.495 205.606 951.297 202.805C952.099 200.005 953.673 192.368 954.797 185.834C957.212 171.791 958.607 163.936 962.334 143.406C963.858 135.006 965.776 124.314 966.594 119.647C968.746 107.375 972.698 86.071 975.726 70.4303C977.172 62.963 978.37 50.552 978.387 42.8522C978.405 35.1524 978.993 28.8849 979.694 28.9257C980.395 28.9664 984.403 29.7776 988.603 30.728C992.804 31.6801 999.677 33.1073 1003.88 33.9016C1008.08 34.6959 1017.62 36.6051 1025.09 38.1461C1032.56 39.6854 1041.72 41.559 1045.46 42.3074C1049.19 43.0559 1053.58 44.2354 1055.22 44.9278C1058.21 46.1938 1059.28 50.1464 1056.91 51.1969C1055.73 51.7196 1052.78 57.4949 1048.38 67.8847C1047.39 70.2182 1045.32 78.2371 1043.79 85.7044C1042.25 93.1717 1040.31 101.954 1039.47 105.221C1038.63 108.488 1037.43 115.574 1036.79 120.967C1036.16 126.361 1034.99 131.179 1034.19 131.674C1033.39 132.17 1032.72 135.012 1032.72 137.991C1032.71 140.969 1031.89 146.356 1030.89 149.961C1029.89 153.567 1028.33 160.44 1027.42 165.235C1023.95 183.545 1022.76 189.629 1020.15 202.381C1019.41 205.993 1018.43 210.754 1017.46 215.516C1016.48 220.29 1015.5 225.065 1014.76 228.686C1013.28 235.92 1011.41 245.276 1010.61 249.476C1009.81 253.676 1008.01 262.841 1006.62 269.842C1002.55 290.351 1002.21 292.091 999.457 306.33C998.014 313.797 996.186 322.579 995.395 325.846C991.163 343.347 989.549 355.695 989.292 372.517L989.011 391.185L981.594 390.6C977.515 390.279 970.008 388.942 964.912 387.63C959.815 386.318 953.178 385.245 950.162 385.245C947.146 385.245 944.263 384.572 943.754 383.749C943.245 382.926 937.807 381.714 931.67 381.057C921.666 379.986 920.328 379.394 918.737 375.341C917.759 372.855 916.278 369.495 915.444 367.874C914.613 366.253 913.93 363.378 913.93 361.486C913.93 359.594 913.214 356.719 912.338 355.098C910.39 351.493 900.353 318.674 900.353 315.908C900.353 314.815 899.634 312.594 898.756 310.973C897.877 309.352 895.892 303.444 894.344 297.844C892.794 292.243 890.909 286.134 890.154 284.267C889.397 282.4 887.554 276.672 886.059 271.539C880.107 251.11 877.758 243.389 876.507 240.142C875.789 238.275 873.977 232.547 872.482 227.414C866.72 207.635 864.193 199.289 862.976 196.017C862.282 194.15 860.373 188.041 858.733 182.44C857.094 176.84 855.166 170.73 854.448 168.863C853.73 166.996 852.715 164.132 852.193 162.499C850.378 156.824 847.743 159.573 847.743 167.142C847.743 171.329 847.003 178.011 846.098 181.992C845.194 185.972 843.566 197.629 842.482 207.897C839.751 233.754 838.095 248.451 835.019 274.084C830.11 315.037 828.835 333.414 829.747 350.214L830.653 366.945L822.651 365.734C813.441 364.342 783.378 361.581 764.16 360.364C751.947 359.59 751.007 359.261 751.007 355.756C751.007 353.681 751.727 351.256 752.608 350.37C755.768 347.184 761.904 315.511 764.591 288.51C765.38 280.576 767.303 263.392 768.864 250.325C770.425 237.257 772.343 220.837 773.127 213.837C773.911 206.836 775.739 190.798 777.19 178.197C778.641 165.596 780.574 148.055 781.487 139.218C782.399 130.379 783.612 121.025 784.182 118.427C784.753 115.83 785.903 106.642 786.74 98.0085C787.575 89.3736 789.42 71.2365 790.837 57.702C792.317 43.5921 792.987 27.5289 792.41 20.0497ZM225.609 55.8759C228.487 55.8046 233.514 54.7167 236.781 53.4592C240.048 52.2016 245.202 51.1138 248.236 51.0425L253.752 50.9135L253.854 61.5205C253.908 67.3552 254.675 75.946 255.558 80.613C256.44 85.2801 257.643 92.1534 258.231 95.8871C258.82 99.6207 259.873 103.439 260.574 104.373C261.274 105.306 262.36 108.743 262.989 112.01C263.617 115.277 264.768 119.477 265.544 121.344C266.319 123.211 268.269 129.702 269.878 135.769C271.487 141.837 273.372 148.71 274.07 151.043C275.249 154.998 276.346 158.813 283.689 184.561C285.22 189.929 287.027 195.847 287.706 197.714C289.156 201.702 292.611 214.565 293.863 220.625C294.344 222.959 295.391 226.395 296.187 228.262C297.604 231.582 300.438 240.957 304.655 256.265C305.813 260.465 307.763 267.338 308.986 271.539C310.212 275.739 312.52 283.758 314.117 289.358C315.714 294.959 317.575 301.068 318.253 302.935C319.858 307.355 323.58 322.014 324.61 327.968C325.053 330.536 326.093 332.635 326.92 332.635C327.748 332.635 328.425 334.558 328.425 336.906C328.425 341.277 338.214 371.831 340.106 373.367C342.026 374.925 347.093 385.486 347.093 387.929C347.093 389.541 345.165 390.337 341.254 390.337C338.041 390.337 335.008 390.994 334.513 391.795C334.017 392.596 329.25 393.765 323.918 394.391C318.585 395.019 313.409 396.185 312.415 396.986C311.42 397.785 307.551 398.839 303.817 399.326C300.083 399.814 292.446 401.477 286.846 403.023C269.6 407.781 263.516 409.151 262.796 408.433C262.417 408.053 261.795 402.872 261.414 396.918C260.216 378.17 254.882 350.337 251.877 347.145C251.042 346.259 250.358 343.994 250.358 342.11C250.358 340.228 249.282 335.608 247.965 331.842C246.65 328.078 244.297 320.416 242.738 314.815C241.18 309.215 239.279 302.723 238.517 300.39C237.753 298.056 235.861 291.565 234.31 285.964C232.759 280.364 230.771 274.456 229.892 272.835C229.015 271.215 228.295 268.35 228.295 266.471C228.295 263.978 227.173 263.053 224.153 263.053C221.873 263.053 219.538 263.817 218.961 264.75C218.384 265.684 216.307 266.447 214.343 266.447C210.567 266.447 193.61 271.007 189.197 273.21C187.76 273.926 183.373 275.057 179.447 275.719C175.52 276.382 171.878 277.623 171.35 278.475C170.824 279.327 168.72 280.05 166.675 280.08C161.298 280.16 144.481 286.231 143.777 288.345C143.212 290.041 152.485 320.31 155.284 325.902C156 327.333 157.161 331.126 157.865 334.332C158.569 337.538 159.72 341.331 160.421 342.762C161.123 344.192 163 349.564 164.592 354.697C166.184 359.831 168.082 365.559 168.808 367.426C169.534 369.293 171.457 375.02 173.08 380.154C174.702 385.288 177.097 391.895 178.402 394.836C179.708 397.777 180.776 401.024 180.776 402.049C180.776 403.075 181.54 403.914 182.473 403.914C183.407 403.914 184.17 405.047 184.17 406.434C184.17 407.82 186.461 412.678 189.262 417.229C192.062 421.779 194.353 426.263 194.353 427.193C194.353 428.121 184.233 432.193 171.866 436.239C159.499 440.286 148.234 444.166 146.834 444.86C139.485 448.506 112.778 456.655 111.259 455.717C110.29 455.117 109.497 449.844 109.497 443.998C109.497 434.655 107.252 424.393 102.771 413.248C102.02 411.381 100.012 405.271 98.3063 399.671C96.6024 394.07 94.6931 388.725 94.0635 387.791C93.4339 386.858 92.3511 383.447 91.657 380.21C90.9646 376.974 89.8241 373.155 89.1232 371.725C87.5534 368.522 82.3025 353.009 74.455 328.392C71.183 318.125 67.8006 308.398 66.9385 306.778C66.0764 305.157 65.372 302.664 65.372 301.238C65.372 299.813 64.6236 297.32 63.7089 295.699C62.7941 294.078 58.5564 282.061 54.2916 268.993C50.0267 255.925 45.9163 243.706 45.156 241.839C44.3957 239.972 42.4593 234.245 40.8521 229.111C39.2449 223.977 37.3459 218.249 36.6314 216.382C33.9907 209.485 31.114 201.012 30.2943 197.714C29.8293 195.847 28.8297 192.792 28.0728 190.926C27.3159 189.059 25.4117 183.713 23.8402 179.046C22.2687 174.379 20.3204 169.033 19.5109 167.166C13.1297 152.459 10.4873 147.459 5.25509 140.2C1.96608 135.639 -0.375947 131.342 0.0500289 130.651C0.476005 129.962 5.22793 127.708 10.6112 125.641C30.6253 117.955 34.0976 116.587 39.323 114.325C42.2641 113.052 45.8467 112.01 47.2842 112.01C48.7216 112.01 50.3695 111.246 50.9466 110.313C51.5236 109.379 53.3904 108.615 55.096 108.615C56.7999 108.615 60.3825 107.475 63.0572 106.08C65.7301 104.687 69.1006 103.541 70.5483 103.534C71.9942 103.529 73.9035 102.827 74.791 101.973C76.3677 100.457 81.0789 99.5444 85.3132 99.9347C86.6573 100.059 87.4346 102.85 87.4346 107.551C87.4346 116.97 95.6673 148.929 102.792 167.166C103.522 169.033 105.421 174.761 107.012 179.894C108.604 185.028 110.526 190.471 111.282 191.99C112.039 193.509 113.18 197.526 113.816 200.918C114.453 204.311 115.651 207.505 116.477 208.016C117.306 208.526 118.006 210.619 118.037 212.664C118.117 218.171 122.005 222.322 127.079 222.322C129.543 222.322 131.56 221.659 131.56 220.848C131.56 220.036 134.042 218.901 137.075 218.324C142.287 217.331 146.56 216.153 168.896 209.541C174.03 208.022 180.903 206.098 184.17 205.265C201.212 200.924 205.09 199.94 205.973 197.75C206.235 197.099 206.233 196.341 206.233 195.357C206.233 191.426 202.268 176.137 199.363 168.863C198.616 166.996 196.724 160.887 195.157 155.286C193.589 149.686 191.729 143.194 191.023 140.861C190.317 138.527 188.433 132.036 186.835 126.435C181.092 106.309 178.677 99.1422 174.666 90.3257C172.426 85.3989 170.593 80.6266 170.593 79.7187C170.593 78.8107 169.83 78.0674 168.896 78.0674C167.963 78.0674 167.199 77.2494 167.199 76.2498C167.199 72.9472 171.328 70.3217 179.927 68.1545C184.594 66.9784 191.086 65.3271 194.353 64.4853C197.62 63.6436 204.239 61.9634 209.062 60.7517C213.885 59.5399 218.404 57.9752 219.104 57.276C219.803 56.5768 222.73 55.9471 225.609 55.8759ZM1122.62 82.3102C1123.38 80.4433 1124.88 75.671 1125.95 71.7032C1127.45 66.1604 1128.72 64.4904 1131.43 64.4904C1135.03 64.4904 1150.03 68.9029 1155.32 71.5182C1156.94 72.3192 1159.51 72.976 1161.03 72.976C1163.44 72.976 1173.59 75.9086 1184.62 79.7916C1186.49 80.4484 1192.6 82.3153 1198.2 83.9394C1203.8 85.5618 1209.55 87.4813 1210.98 88.2043C1212.41 88.9255 1216.23 90.0847 1219.47 90.7788C1222.7 91.4746 1226.11 92.5098 1227.05 93.0784C1230.22 95.0131 1245.7 100.02 1248.69 100.074C1250.32 100.104 1251.66 100.809 1251.66 101.639C1251.66 102.467 1254.42 103.665 1257.81 104.3C1261.19 104.934 1265.2 106.121 1266.72 106.939C1268.23 107.755 1278.26 111.575 1288.99 115.428C1299.73 119.278 1311.18 123.749 1314.45 125.361L1320.39 128.288L1321.69 159.59L1323 190.89L1314.77 198.544C1310.24 202.755 1303.16 209.132 1299.04 212.717C1289.23 221.24 1270.22 238.377 1261.08 246.93C1257.09 250.664 1250.14 256.774 1245.63 260.507C1241.11 264.241 1234.58 270.161 1231.1 273.66C1227.62 277.161 1224.36 280.024 1223.86 280.024C1223.35 280.024 1220.01 282.887 1216.42 286.388C1212.83 289.89 1206.2 295.807 1201.69 299.541C1197.17 303.275 1190.27 309.384 1186.36 313.118C1177.62 321.444 1156.95 339.931 1138.07 356.291C1133.07 360.629 1134.09 361.671 1147.28 365.666C1152.88 367.363 1158.99 369.342 1160.86 370.065C1162.73 370.788 1168.07 372.588 1172.74 374.063C1177.41 375.54 1186.95 378.567 1193.95 380.792C1208.27 385.342 1225.88 388.536 1239.78 389.106C1248.34 389.456 1249.08 389.802 1248.71 393.298C1248.25 397.597 1237.92 419.731 1235.96 420.602C1235.26 420.914 1234.69 422.188 1234.69 423.434C1234.69 425.552 1229.78 435.962 1227.9 437.856C1225.95 439.809 1221.11 450.194 1221.11 452.419C1221.11 453.743 1220.34 454.827 1219.41 454.827C1218.48 454.827 1217.71 455.973 1217.71 457.373C1217.71 458.773 1217.16 459.919 1216.48 459.919C1214.95 459.919 1193.35 451.966 1186.06 448.723C1183.12 447.413 1179.11 446.342 1177.15 446.342C1175.19 446.342 1173.59 445.578 1173.59 444.645C1173.59 443.711 1172.25 442.951 1170.62 442.956C1167.54 442.964 1152.75 438.479 1147.92 436.071C1146.4 435.314 1142.38 434.173 1138.99 433.537C1135.6 432.9 1132.4 431.702 1131.89 430.876C1131.38 430.048 1128.76 429.371 1126.07 429.371C1123.38 429.371 1120.75 428.673 1120.22 427.821C1119.69 426.969 1116.05 425.729 1112.12 425.065C1108.2 424.403 1103.81 423.285 1102.37 422.584C1099.84 421.343 1088.14 417.898 1074.31 414.319C1057.11 409.867 1046.95 406.923 1044.61 405.713C1040.79 403.741 1039.94 349.645 1043.68 346.911C1047.29 344.27 1066.86 326.705 1078.49 315.664C1083.89 310.53 1092.04 303.149 1096.59 299.261C1101.14 295.373 1107.99 289.263 1111.83 285.684C1115.66 282.105 1121.77 276.562 1125.4 273.366C1129.04 270.171 1135.87 264.061 1140.6 259.79C1160.58 241.722 1178.12 225.805 1182.17 222.076C1184.56 219.878 1191.76 213.497 1198.17 207.897C1204.58 202.296 1211.82 195.805 1214.25 193.471C1216.69 191.138 1223.43 185.105 1229.23 180.064C1235.03 175.024 1239.78 170.027 1239.78 168.96C1239.78 167.892 1235.39 165.64 1230.02 163.953C1224.65 162.268 1219.09 160.298 1217.66 159.575C1216.23 158.854 1212.43 157.688 1209.23 156.983C1206.02 156.279 1202.23 155.113 1200.8 154.392C1199.37 153.669 1193.62 151.749 1188.01 150.127C1182.41 148.503 1176.3 146.624 1174.44 145.952C1172.57 145.28 1166.46 143.43 1160.86 141.84C1155.26 140.25 1148.39 138.203 1145.59 137.293C1142.79 136.382 1134.19 135.172 1126.47 134.602C1110.22 133.4 1105.43 131.026 1108.64 125.765C1109.79 123.881 1111.23 119.253 1111.83 115.479C1112.43 111.704 1113.59 108.615 1114.41 108.615C1115.22 108.615 1115.89 107.224 1115.89 105.523C1115.89 102.597 1119.63 89.6994 1122.62 82.3102Z" fill="#F8E9D4"/>
</svg>
