<svg width="136" height="71" viewBox="0 0 136 71" fill="none" xmlns="http://www.w3.org/2000/svg">
<path fill-rule="evenodd" clip-rule="evenodd" d="M63.3035 0.924475C63.1565 1.02483 63.1481 1.29208 63.273 1.90281C63.3676 2.36498 63.5127 3.33173 63.5956 4.05123C63.7946 5.7801 63.787 36.8608 63.5872 38.0641C63.5019 38.5781 63.381 39.2718 63.3184 39.6059L63.2048 40.2133H67.7712H72.3377L72.2159 39.3256C72.1489 38.8373 72.0264 38.2432 71.9436 38.0053C71.8607 37.7674 71.7928 30.0134 71.7928 20.7744C71.7928 6.44541 71.8314 3.81782 72.0545 2.89984C72.1985 2.30779 72.3162 1.58885 72.3162 1.30217V0.780762L67.9112 0.783565C65.4885 0.785247 63.415 0.8486 63.3035 0.924475ZM53.3875 1.35001C53.0037 1.4371 51.7084 1.60044 50.509 1.71294C47.8827 1.95944 46.3352 2.1553 43.7923 2.56308C42.7369 2.73239 41.4023 2.93498 40.8266 3.01347C39.1439 3.24259 37.2053 3.59879 36.6272 3.78511C36.3325 3.88005 35.8615 3.95891 35.5804 3.96041C35.2994 3.96172 34.8856 4.01573 34.6607 4.0802C34.1904 4.21513 34.2036 4.4635 34.7788 6.29384C35.1436 7.45458 35.68 10.4384 35.68 11.3065C35.68 11.5787 35.7563 12.1601 35.8494 12.5986C35.9424 13.0368 36.1094 14.1103 36.22 14.984C36.3308 15.8576 36.4853 17.035 36.5637 17.6003C36.9122 20.1158 37.2763 22.8432 37.4243 24.0478C37.5129 24.7673 37.6348 25.5663 37.6957 25.8232C37.7564 26.0802 37.874 26.8791 37.9569 27.5986C38.0398 28.3181 38.2338 29.8319 38.388 30.9626C38.5424 32.0932 38.7346 33.5229 38.8156 34.1396C38.8965 34.7563 39.098 36.186 39.2636 37.3166C39.4291 38.4473 39.5989 40.1503 39.6406 41.101C39.7264 43.0568 39.6399 42.9794 41.3499 42.6282C42.8597 42.3182 47.3731 41.6278 49.2878 41.414C49.7196 41.3658 50.7009 41.2365 51.4685 41.1264C52.7075 40.9489 54.3683 40.7908 58.4269 40.4641L59.6281 40.3675L59.5011 38.1881C59.227 33.4855 59.1405 32.3894 59.0344 32.2763C58.9737 32.2119 58.6298 32.336 58.2701 32.5524C56.98 33.3287 55.2637 33.7662 52.428 34.0418C51.6124 34.1211 50.0228 34.2949 48.8956 34.4279C47.7684 34.561 46.7939 34.6139 46.73 34.5455C46.6662 34.4773 46.5533 33.8112 46.4792 33.0657C46.4049 32.3201 46.214 30.743 46.0547 29.5609C45.8954 28.3789 45.7531 26.8651 45.7382 26.197L45.7114 24.9823L46.322 24.9368C46.6578 24.912 47.9054 24.7537 49.0943 24.5849C50.5351 24.3807 51.9188 24.3097 53.2426 24.3723L55.2289 24.4661L55.1133 21.734C55.0498 20.2315 54.9299 18.8603 54.8469 18.6873C54.7638 18.514 54.696 17.8623 54.696 17.2389C54.696 16.0954 54.5053 15.8236 54.047 16.3146C53.8218 16.5558 52.692 16.8509 51.5557 16.9651C51.1239 17.0087 49.8286 17.1655 48.6772 17.3137C44.6067 17.8379 44.7627 17.8397 44.5519 17.2654C44.4499 16.987 44.2965 16.0866 44.2112 15.2643C44.1259 14.442 43.9626 12.8965 43.8485 11.8295C43.6533 10.0057 43.6604 9.87473 43.968 9.63365C44.1479 9.49274 44.5835 9.37743 44.9359 9.37743C45.2881 9.37743 45.9994 9.28717 46.5163 9.17691C48.9232 8.66354 54.4102 8.36078 56.0916 8.64859L56.5278 8.72334L56.4644 5.60499C56.4296 3.88995 56.3481 2.208 56.2835 1.86731C56.167 1.25376 56.1562 1.24779 55.1257 1.21975C54.5534 1.20424 53.7713 1.26292 53.3875 1.35001ZM81.4777 1.33712C81.4095 1.45541 81.4002 2.19846 81.4571 2.98861C81.5164 3.81221 81.4475 5.58107 81.2954 7.13482C81.1497 8.62522 80.9601 10.6225 80.8743 11.5733C80.7882 12.524 80.67 13.5358 80.6113 13.8217C80.5527 14.1078 80.428 15.1379 80.3343 16.1112C80.2404 17.0843 80.0417 19.016 79.8926 20.4036C79.7434 21.7912 79.5555 23.5573 79.4749 24.3282C79.3943 25.0991 79.1972 26.9072 79.0367 28.3462C78.8762 29.7852 78.6785 31.6774 78.5974 32.5511C78.3212 35.5244 77.6904 39.0122 77.3656 39.363C77.275 39.4605 77.201 39.7276 77.201 39.9562C77.201 40.3421 77.2977 40.3783 78.5531 40.4636C80.5286 40.5975 83.619 40.9016 84.5658 41.0549L85.3884 41.1883L85.2952 39.3458C85.2015 37.4958 85.3325 35.4723 85.8372 30.9626C86.1534 28.1399 86.3236 26.5214 86.6043 23.6741C86.7158 22.5434 86.8831 21.2597 86.9761 20.8215C87.0691 20.383 87.1451 19.6473 87.1451 19.1862C87.1451 18.3527 87.4161 18.05 87.6026 18.6749C87.6563 18.8547 87.7606 19.1702 87.8344 19.3757C87.9082 19.5813 88.1064 20.2541 88.2749 20.8708C88.4435 21.4875 88.6397 22.1603 88.7111 22.3659C88.8362 22.7262 89.0959 23.6453 89.6882 25.8232C89.8419 26.3886 90.0282 27.0193 90.102 27.2249C90.2306 27.5824 90.4721 28.4327 91.0839 30.6822C91.2376 31.2476 91.427 31.8783 91.5048 32.0839C91.5825 32.2894 91.7763 32.9622 91.9356 33.5789C92.0947 34.1956 92.2988 34.8462 92.3892 35.0247C92.4794 35.2031 92.5533 35.4478 92.5533 35.5681C92.5533 35.8727 93.5851 39.4867 93.7854 39.8837C93.8754 40.0621 93.949 40.3787 93.949 40.5871C93.949 40.7955 94.0191 41.112 94.1046 41.2905C94.1903 41.469 94.3426 41.839 94.4431 42.1128C94.6067 42.5591 94.7442 42.6243 95.7726 42.7422C96.4035 42.8146 96.9624 42.948 97.0148 43.0386C97.0671 43.1293 97.3635 43.2035 97.6735 43.2035C97.9835 43.2035 98.6658 43.3216 99.1897 43.466C99.7136 43.6105 100.485 43.7578 100.905 43.7931L101.667 43.8576L101.696 41.8018C101.722 39.9494 101.888 38.5897 102.323 36.6625C102.405 36.3028 102.593 35.3356 102.741 34.5134C103.023 32.9454 103.059 32.7538 103.477 30.4953C103.62 29.7244 103.805 28.7153 103.887 28.2527C103.97 27.7902 104.162 26.7599 104.314 25.9634C104.466 25.1669 104.715 23.8632 104.868 23.0667C105.136 21.6624 105.258 20.9925 105.615 18.9762C105.709 18.4482 105.869 17.6913 105.972 17.2942C106.075 16.8973 106.159 16.3041 106.16 15.9761C106.161 15.6481 106.229 15.3351 106.311 15.2805C106.393 15.226 106.514 14.6954 106.579 14.1015C106.644 13.5076 106.768 12.7273 106.854 12.3676C106.94 12.0078 107.14 11.0407 107.298 10.2184C107.456 9.39612 107.668 8.51309 107.77 8.25613C108.222 7.11202 108.526 6.47606 108.647 6.4185C108.89 6.30282 108.78 5.86756 108.473 5.72815C108.305 5.6519 107.853 5.52201 107.469 5.4396C107.086 5.35718 106.144 5.15086 105.376 4.98136C104.608 4.81167 103.627 4.60142 103.195 4.51396C102.763 4.4265 102.057 4.26933 101.625 4.16449C101.193 4.05983 100.781 3.9705 100.709 3.96602C100.637 3.96153 100.577 4.65169 100.575 5.49959C100.573 6.34748 100.45 7.71416 100.301 8.53645C99.9901 10.2588 99.5838 12.6047 99.3626 13.9561C99.2785 14.47 99.0814 15.6474 98.9247 16.5725C98.5416 18.8332 98.3982 19.6981 98.15 21.2446C98.0345 21.9641 97.8726 22.8051 97.7902 23.1134C97.7077 23.4218 97.5887 24.1841 97.5257 24.8075C97.3249 26.7982 97.1105 26.7188 96.4828 24.4216C96.3143 23.8049 96.114 23.1321 96.0378 22.9265C95.9617 22.721 95.7735 22.0902 95.6198 21.5249C95.0195 19.3172 94.7672 18.4265 94.6409 18.0675C94.1608 16.7037 93.949 15.9472 93.949 15.5962C93.949 15.3744 93.8794 15.1467 93.7943 15.0905C93.7093 15.0342 93.5861 14.6825 93.5207 14.3089C93.4553 13.9354 93.3384 13.493 93.2609 13.3257C93.1835 13.1585 92.9836 12.5171 92.8164 11.9004C92.6495 11.2837 92.4544 10.6109 92.3831 10.4053C92.3117 10.1997 92.1154 9.52694 91.9469 8.91022C91.7784 8.2935 91.5781 7.62072 91.5019 7.41515C91.4258 7.20958 91.2376 6.57884 91.0839 6.01352C89.949 1.84021 90.0795 2.08895 89.0247 2.08895C88.5556 2.08895 87.8428 2.00579 87.4405 1.90412C87.0382 1.80246 85.7277 1.64136 84.5283 1.54624C83.3289 1.45093 82.1797 1.31656 81.9747 1.24741C81.7591 1.1749 81.5496 1.21265 81.4777 1.33712ZM24.3403 6.66761C24.0044 6.80609 23.4877 6.92589 23.1918 6.93373C22.8959 6.94158 22.595 7.01092 22.5231 7.08791C22.4513 7.16491 21.9867 7.33722 21.4909 7.47065C20.9951 7.60409 20.3147 7.7891 19.9788 7.8818C19.643 7.97449 18.9757 8.15633 18.4959 8.28584C17.612 8.52449 17.1875 8.8136 17.1875 9.17728C17.1875 9.28735 17.266 9.37743 17.362 9.37743C17.4579 9.37743 17.5364 9.45929 17.5364 9.55927C17.5364 9.65926 17.7248 10.1848 17.9551 10.7273C18.3674 11.6982 18.6156 12.4874 19.206 14.7036C19.3703 15.3203 19.564 16.0352 19.6365 16.2921C19.7091 16.5491 19.9003 17.2639 20.0615 17.8807C20.2226 18.4974 20.4171 19.1702 20.4938 19.3757C20.7925 20.1767 21.2 21.8604 21.2 22.2932C21.2 22.7662 21.2046 22.7641 18.9321 23.3842C18.5963 23.476 17.8897 23.6879 17.362 23.8552C15.0659 24.5833 14.6266 24.713 14.0909 24.8223C13.7791 24.8858 13.5239 25.0109 13.5239 25.1002C13.5239 25.1895 13.3166 25.2626 13.0633 25.2626C12.5417 25.2626 12.142 24.8055 12.1338 24.199C12.1307 23.9738 12.0586 23.7434 11.9735 23.6872C11.8885 23.6309 11.7654 23.2792 11.6999 22.9056C11.6345 22.532 11.5173 22.0897 11.4395 21.9224C11.3617 21.7551 11.1642 21.1558 11.0005 20.5905C10.8369 20.0252 10.6417 19.3944 10.5667 19.1889C9.83428 17.1806 8.98798 13.6614 8.98798 12.6242C8.98798 12.1065 8.90808 11.7991 8.76991 11.7854C8.33464 11.7425 7.85034 11.843 7.68827 12.0099C7.59703 12.1039 7.40076 12.1813 7.25213 12.1818C7.10331 12.1826 6.75684 12.3087 6.48207 12.4621C6.20712 12.6158 5.83884 12.7413 5.66369 12.7413C5.48836 12.7413 5.29645 12.8254 5.23714 12.9282C5.17782 13.031 5.00842 13.1151 4.86066 13.1151C4.71289 13.1151 4.34461 13.2299 4.04227 13.37C3.50512 13.6191 3.14818 13.7698 1.09079 14.6162C0.537414 14.8438 0.0489318 15.092 0.00514281 15.1678C-0.0386461 15.2439 0.202106 15.7171 0.540206 16.2194C1.07806 17.0188 1.34969 17.5693 2.00565 19.1889C2.08887 19.3944 2.28915 19.9831 2.45069 20.497C2.61224 21.011 2.80798 21.5997 2.88579 21.8052C2.9636 22.0108 3.06635 22.3472 3.11416 22.5528C3.19842 22.9159 3.49413 23.849 3.76558 24.6085C3.83903 24.8141 4.03425 25.4448 4.19946 26.0101C4.36467 26.5754 4.56373 27.2062 4.64189 27.4118C4.72004 27.6173 5.14258 28.9629 5.58099 30.4019C6.0194 31.8409 6.45503 33.1642 6.54906 33.3427C6.64309 33.5212 6.72003 33.7957 6.72003 33.9527C6.72003 34.1097 6.79243 34.3842 6.88105 34.5627C6.96968 34.7412 7.31737 35.8122 7.65373 36.9428C8.46042 39.6536 9.00019 41.3619 9.16157 41.7146C9.23362 41.8721 9.35086 42.2926 9.42204 42.649C9.49339 43.0054 9.60469 43.381 9.66942 43.4838C9.73414 43.5866 9.93041 44.1753 10.1056 44.792C10.2809 45.4087 10.4873 46.0815 10.5646 46.2871C11.0251 47.5143 11.2559 48.6444 11.2559 49.6732C11.2559 50.317 11.3374 50.8977 11.437 50.9636C11.5932 51.067 14.3386 50.1696 15.094 49.7681C15.2379 49.6917 16.396 49.2645 17.6673 48.8188C18.9385 48.3732 19.9788 47.9249 19.9788 47.8227C19.9788 47.7203 19.7433 47.2265 19.4555 46.7255C19.1676 46.2243 18.9321 45.6894 18.9321 45.5367C18.9321 45.384 18.8536 45.2592 18.7576 45.2592C18.6617 45.2592 18.5832 45.1669 18.5832 45.0538C18.5832 44.9409 18.4734 44.5834 18.3391 44.2595C18.2049 43.9357 17.9588 43.2081 17.792 42.6428C17.6252 42.0775 17.4276 41.4468 17.3529 41.2412C17.2782 41.0356 17.0832 40.4049 16.9195 39.8396C16.7559 39.2742 16.5629 38.6827 16.4907 38.5252C16.4187 38.3677 16.3004 37.95 16.228 37.5969C16.1556 37.2439 16.0363 36.8262 15.9626 36.6687C15.675 36.0529 14.7217 32.7196 14.7798 32.5329C14.8522 32.3001 16.5809 31.6316 17.1336 31.6228C17.3438 31.6194 17.5601 31.5398 17.6142 31.446C17.6685 31.3522 18.0429 31.2156 18.4466 31.1425C18.8501 31.0696 19.3011 30.9452 19.4488 30.8663C19.9024 30.6237 21.6456 30.1216 22.0338 30.1216C22.2356 30.1216 22.4492 30.0375 22.5085 29.9347C22.5678 29.8319 22.8078 29.7478 23.0421 29.7478C23.3527 29.7478 23.468 29.8497 23.468 30.1242C23.468 30.3311 23.542 30.6465 23.6322 30.825C23.7225 31.0035 23.9268 31.654 24.0863 32.2707C24.2457 32.8875 24.4402 33.6023 24.5188 33.8593C24.5971 34.1162 24.7925 34.8311 24.9526 35.4478C25.113 36.0645 25.3548 36.9083 25.49 37.3228C25.6253 37.7375 25.7359 38.2462 25.7359 38.4534C25.7359 38.6609 25.8062 38.9104 25.8921 39.0079C26.201 39.3594 26.7494 42.4243 26.8725 44.4888C26.9116 45.1444 26.9756 45.715 27.0145 45.7569C27.0885 45.8359 27.7139 45.6851 29.4868 45.1611C30.0625 44.9908 30.8476 44.8077 31.2314 44.754C31.6152 44.7004 32.0129 44.5844 32.1152 44.4963C32.2174 44.4081 32.7495 44.2797 33.2976 44.2106C33.8458 44.1416 34.3358 44.0129 34.3868 43.9247C34.4377 43.8364 34.7495 43.7641 35.0797 43.7641C35.4819 43.7641 35.68 43.6765 35.68 43.4989C35.68 43.23 35.1591 42.067 34.9618 41.8955C34.7673 41.7263 33.761 38.3617 33.761 37.8804C33.761 37.6218 33.6914 37.4101 33.6063 37.4101C33.5213 37.4101 33.4144 37.1789 33.3688 36.8961C33.2629 36.2405 32.8803 34.6262 32.7153 34.1396C32.6457 33.934 32.4543 33.2612 32.2902 32.6445C32.126 32.0278 31.8887 31.1448 31.7628 30.6822C31.637 30.2197 31.4365 29.4628 31.3176 29.0003C30.884 27.3146 30.5927 26.2822 30.447 25.9167C30.3652 25.7111 30.2575 25.3327 30.2082 25.0757C30.0794 24.4083 29.7242 22.9919 29.5752 22.5528C29.5055 22.3472 29.3197 21.6955 29.1623 21.1044C28.4074 18.269 28.2947 17.8489 28.1735 17.4135C28.1018 17.1565 27.9079 16.3996 27.7426 15.7315C27.5772 15.0634 27.3767 14.3486 27.297 14.143C27.2173 13.9374 27.099 13.4749 27.0344 13.1151C26.9697 12.7554 26.8581 12.3769 26.7862 12.2741C26.7141 12.1714 26.6058 11.7509 26.5453 11.3397C26.4849 10.9286 26.3612 10.1717 26.2705 9.65776C26.1798 9.14383 26.1009 8.19782 26.0953 7.55531L26.0849 6.38729L25.5179 6.40149C25.2059 6.40934 24.6761 6.52913 24.3403 6.66761ZM115.744 8.67662C115.634 9.11355 115.48 9.63907 115.402 9.84464C115.094 10.6583 114.71 12.0787 114.71 12.4008C114.71 12.5881 114.641 12.7413 114.557 12.7413C114.474 12.7413 114.354 13.0815 114.292 13.4971C114.23 13.9127 114.083 14.4224 113.965 14.6298C113.635 15.2092 114.127 15.4706 115.798 15.6029C116.591 15.6657 117.475 15.799 117.763 15.8993C118.05 15.9995 118.757 16.2249 119.333 16.4C119.908 16.5751 120.536 16.7788 120.728 16.8528C120.92 16.9268 121.548 17.1337 122.124 17.3125C122.7 17.4912 123.291 17.7026 123.438 17.7822C123.585 17.8616 123.975 17.99 124.305 18.0675C124.634 18.1451 125.024 18.2735 125.171 18.3529C125.318 18.4325 125.89 18.6495 126.442 18.8351C126.994 19.0208 127.445 19.2688 127.445 19.3864C127.445 19.5039 126.957 20.0541 126.361 20.6092C125.764 21.1642 125.071 21.8286 124.821 22.0856C124.571 22.3425 123.827 23.0574 123.168 23.6741C122.508 24.2908 121.769 24.9935 121.523 25.2355C121.107 25.6461 119.303 27.3989 117.25 29.3884C116.764 29.8588 116.061 30.5316 115.688 30.8835C115.315 31.2354 114.686 31.8458 114.292 32.2399C113.898 32.634 113.193 33.3068 112.726 33.735C112.258 34.1631 111.421 34.9759 110.865 35.5412C109.669 36.7571 107.658 38.6913 107.286 38.9821C106.902 39.2832 106.99 45.2401 107.382 45.4573C107.623 45.5905 108.667 45.9148 110.435 46.405C111.857 46.7991 113.06 47.1785 113.32 47.3151C113.468 47.3923 113.919 47.5154 114.323 47.5883C114.726 47.6614 115.101 47.798 115.155 47.8918C115.209 47.9856 115.48 48.0625 115.756 48.0625C116.033 48.0625 116.302 48.137 116.355 48.2282C116.407 48.3192 116.735 48.4512 117.084 48.5212C117.433 48.5913 117.846 48.7169 118.002 48.8003C118.499 49.0655 120.019 49.5594 120.336 49.5585C120.504 49.5579 120.641 49.6416 120.641 49.7444C120.641 49.8472 120.806 49.9313 121.007 49.9313C121.209 49.9313 121.621 50.0492 121.923 50.1935C122.672 50.5506 124.893 51.4264 125.05 51.4264C125.12 51.4264 125.177 51.3002 125.177 51.146C125.177 50.9919 125.255 50.8657 125.351 50.8657C125.447 50.8657 125.526 50.7463 125.526 50.6005C125.526 50.3555 126.023 49.212 126.224 48.9969C126.418 48.7883 126.922 47.642 126.922 47.4087C126.922 47.2716 126.981 47.1312 127.052 47.0968C127.254 47.0009 128.316 44.5636 128.363 44.0902C128.401 43.7052 128.325 43.6671 127.445 43.6286C126.016 43.5658 124.206 43.2141 122.735 42.7131C122.015 42.4681 121.034 42.1347 120.554 41.9721C120.074 41.8097 119.525 41.6114 119.333 41.5318C119.141 41.4522 118.513 41.2343 117.937 41.0474C116.581 40.6075 116.475 40.4927 116.99 40.015C118.931 38.2135 121.056 36.1777 121.954 35.2609C122.356 34.8497 123.065 34.177 123.529 33.7658C123.994 33.3547 124.675 32.703 125.044 32.3175C125.413 31.9319 125.757 31.6166 125.808 31.6166C125.86 31.6166 126.195 31.3014 126.553 30.9158C126.91 30.5305 127.582 29.8786 128.046 29.4675C128.51 29.0563 129.225 28.3836 129.635 27.9724C130.574 27.0305 132.529 25.1434 133.537 24.2048C133.961 23.8101 134.689 23.1078 135.154 22.6442L136 21.8013L135.866 18.3546L135.732 14.9077L135.121 14.5853C134.785 14.4078 133.608 13.9155 132.504 13.4915C131.401 13.0673 130.37 12.6466 130.214 12.5567C130.058 12.4666 129.646 12.336 129.298 12.2661C128.951 12.1962 128.666 12.0643 128.666 11.9731C128.666 11.8817 128.529 11.8041 128.361 11.8008C128.054 11.7948 126.463 11.2435 126.136 11.0304C126.041 10.9678 125.69 10.8538 125.357 10.7772C125.025 10.7008 124.632 10.5731 124.485 10.4937C124.338 10.4141 123.746 10.2027 123.171 10.0241C122.595 9.84521 121.967 9.63963 121.775 9.56731C120.641 9.13972 119.598 8.81678 119.35 8.81678C119.194 8.81678 118.93 8.74446 118.763 8.65625C118.22 8.36826 116.678 7.88236 116.307 7.88236C116.029 7.88236 115.898 8.06625 115.744 8.67662ZM44.2285 56.3752V59.8291L44.665 59.9464C44.9879 60.0331 48.0463 59.9537 48.3719 59.85C48.3958 59.8423 48.4155 59.5035 48.4155 59.0968V58.3575L47.1507 58.3026L45.8858 58.2476V57.687C45.8858 57.1312 45.8956 57.1256 47.0198 57.0329L48.1538 56.9394V56.2854V55.6313L47.0198 55.5378C45.9499 55.4496 45.8858 55.418 45.8858 54.9772C45.8858 54.5328 45.941 54.5072 47.0153 54.4531C48.2183 54.3928 48.4085 54.2543 48.4129 53.4354L48.4155 52.9214H46.322H44.2285V56.3752ZM51.0458 53.4965C50.5931 53.9814 50.509 54.2143 50.509 54.983C50.509 56.345 50.8691 56.6565 53.3003 57.3982C53.611 57.493 53.7364 57.6612 53.7364 57.9828C53.7364 58.3572 53.6379 58.4446 53.1614 58.4938C52.8225 58.5285 52.2581 58.3828 51.7874 58.1387C51.0702 57.7668 50.9723 57.755 50.8321 58.0234C50.7461 58.188 50.5643 58.442 50.428 58.588C50.2141 58.8171 50.2325 58.9012 50.5629 59.2045C51.1077 59.705 52.0597 60.023 53.013 60.023C54.6272 60.023 55.5683 59.2127 55.5683 57.8225C55.5683 56.7991 54.8577 56.0731 53.4439 55.652C52.315 55.3156 52.0453 55.102 52.2012 54.6671C52.3214 54.3313 53.4788 54.344 54.0976 54.6879C54.5679 54.9493 54.6002 54.9372 54.9711 54.3608C55.1829 54.0317 55.3238 53.7047 55.2842 53.634C55.058 53.23 54.0046 52.9214 52.8507 52.9214C51.6672 52.9214 51.5466 52.9598 51.0458 53.4965ZM56.4432 53.4354C56.4472 54.2065 56.6312 54.3849 57.4901 54.4503L58.2724 54.51L58.3596 57.2175C58.4545 60.1636 58.478 60.2193 59.5073 59.9427L59.9297 59.8291V57.1228V54.4165H60.7148H61.4998V53.669V52.9214H58.9702H56.4405L56.4432 53.4354ZM63.2444 55.2575V57.5935H64.0528C66.0635 57.5935 67.0233 56.7025 66.8688 54.9796C66.8063 54.2831 66.6624 53.9377 66.2505 53.4965C65.7522 52.9627 65.6251 52.9214 64.479 52.9214H63.2444V55.2575ZM71.2695 53.5625C71.2695 54.0852 71.342 54.2147 71.662 54.2633C72.0462 54.3218 72.0556 54.3812 72.1029 57.0774C72.1507 59.8104 72.1543 59.8324 72.5699 59.9442C72.8003 60.006 73.1515 60.0015 73.3504 59.9339C73.6988 59.8154 73.7119 59.6868 73.7119 56.3663V52.9214H72.4907H71.2695V53.5625ZM76.5463 53.4086C75.9531 54.1334 75.8888 54.6877 76.3094 55.4511C76.6749 56.1147 76.6749 56.1173 76.33 56.5139C75.8165 57.1043 75.7276 57.9593 76.0873 58.8485C76.4285 59.6926 77.0716 60.023 78.3729 60.023C79.5093 60.023 80.1405 59.6898 80.522 58.8885C80.9697 57.9484 80.9545 57.6352 80.4205 56.7931C80.0086 56.1439 79.9959 56.0628 80.246 55.6804C80.6625 55.0435 80.5892 53.9955 80.088 53.4159C79.6951 52.962 79.5487 52.9216 78.2998 52.9248C77.059 52.928 76.9048 52.9704 76.5463 53.4086ZM84.5283 53.1885C84.5283 53.3352 84.4302 53.5681 84.3102 53.7058C84.1904 53.8435 83.941 54.2489 83.7563 54.6068C83.5717 54.9646 83.3755 55.2995 83.3202 55.3511C82.9658 55.6815 82.6092 56.8228 82.6092 57.6266C82.6092 59.2719 83.3624 60.023 85.0122 60.023C86.0361 60.023 87.1451 59.4471 87.1451 58.915C87.1451 58.8049 87.2236 58.7148 87.3196 58.7148C87.564 58.7148 87.5378 57.0198 87.2844 56.4446C87.0515 55.9159 86.2512 55.3509 85.7354 55.3509C85.2818 55.3509 85.3146 54.9289 85.8367 54.0427C86.0766 53.6357 86.2729 53.2169 86.2729 53.1121C86.2729 53.0072 85.8803 52.9214 85.4006 52.9214C84.7608 52.9214 84.5283 52.9926 84.5283 53.1885ZM89.6348 53.4894C88.4068 54.7755 88.8608 56.8157 90.5035 57.3926C90.8634 57.5192 91.1577 57.7421 91.1577 57.8884C91.1577 58.0346 91.0989 58.1551 91.0268 58.1562C90.9548 58.1576 90.746 58.4939 90.5626 58.9038C90.3792 59.3138 90.1504 59.6493 90.0537 59.6493C89.9572 59.6493 89.9328 59.7076 89.9993 59.7788C90.0657 59.85 90.4489 59.9262 90.8506 59.9483C91.5905 59.9887 92.2044 59.5506 92.2044 58.9821C92.2044 58.8522 92.2658 58.718 92.341 58.6836C92.416 58.6494 92.8086 58.0559 93.2133 57.3646C93.8443 56.2865 93.949 55.9628 93.949 55.0895C93.949 54.202 93.8803 53.9979 93.4122 53.4965C92.9054 52.9536 92.8002 52.9214 91.5263 52.9214C90.2587 52.9214 90.1444 52.9558 89.6348 53.4894ZM78.7363 54.0801C79.0454 54.4113 78.9952 55.2906 78.6593 55.4287C77.8868 55.7462 77.2771 54.8624 77.823 54.2162C78.1735 53.8013 78.4392 53.7619 78.7363 54.0801ZM65.4161 54.4847C65.661 54.7277 65.8613 55.025 65.8613 55.1454C65.8613 55.6038 65.2868 56.2854 64.9004 56.2854C64.4626 56.2854 64.2912 55.9695 64.2912 55.1641C64.2912 53.9766 64.6723 53.7463 65.4161 54.4847ZM92.1976 54.6387C92.6516 55.1605 92.6449 55.2698 92.125 55.8266C91.5774 56.4134 91.2712 56.4055 90.8215 55.7929C90.3738 55.1833 90.3726 55.0706 90.8088 54.6034C91.2629 54.1169 91.7548 54.1295 92.1976 54.6387ZM85.6593 56.963C86.057 57.3889 85.9211 58.1265 85.3807 58.4758C84.9583 58.7489 84.8911 58.7444 84.4702 58.4156C83.9456 58.0058 83.881 57.4893 84.2936 57.0009C84.6513 56.5775 85.2831 56.5599 85.6593 56.963ZM78.7827 57.0394C79.1173 57.2314 79.2202 57.8442 79.0142 58.4192C78.9479 58.6044 78.6977 58.7148 78.3444 58.7148C77.589 58.7148 77.2187 57.9711 77.6353 57.2902C77.9299 56.8084 78.2555 56.7372 78.7827 57.0394ZM64.1493 59.3222C64.1942 59.8218 64.2779 59.9296 64.621 59.9296C65.1034 59.9296 65.4427 59.4643 65.284 59.0206C65.2151 58.8287 64.9735 58.7148 64.6345 58.7148C64.1305 58.7148 64.0982 58.7552 64.1493 59.3222Z" fill="#1E344F"/>
<rect x="40.9988" y="50.0557" width="54" height="13.926" fill="#FAF0CA"/>
<path d="M41.3084 65.2012H46.3695C46.4906 65.2012 46.5849 65.1069 46.5983 64.9993L46.9752 62.6033C46.9887 62.5226 46.9618 62.4687 46.881 62.4687H46.7733C46.7195 62.4687 46.6791 62.5091 46.6522 62.5629C46.3022 63.5994 45.71 64.3532 44.8081 64.3532H43.7313C43.3275 64.3532 43.2602 64.1782 43.2467 63.8282V60.7727H44.4716C45.1312 60.7727 45.3734 61.2842 45.535 61.8361C45.5484 61.8765 45.5888 61.9169 45.6426 61.9169H45.7234C45.7907 61.9169 45.8446 61.863 45.8446 61.7957V58.9017C45.8446 58.8479 45.7907 58.7941 45.7234 58.7941H45.6426C45.5888 58.7941 45.5484 58.821 45.535 58.8748C45.3734 59.4132 45.1312 59.9247 44.4716 59.9247H43.2467V57.1519C43.2602 56.7885 43.3275 56.6269 43.7313 56.6269H44.4716C45.3734 56.6269 45.9522 57.3807 46.3157 58.4172C46.3291 58.471 46.383 58.4979 46.4368 58.4979H46.558C46.6253 58.4979 46.6387 58.4441 46.6387 58.3633L46.2618 55.9809C46.2484 55.8597 46.1407 55.7789 46.0195 55.7789H41.3084C41.2546 55.7789 41.2007 55.8328 41.2007 55.8866V56.0347C41.2007 56.0751 41.2277 56.1289 41.2815 56.1424C41.6853 56.2635 41.7526 56.3981 41.7661 56.7346V64.232C41.7526 64.5685 41.6853 64.7166 41.2815 64.8377C41.2277 64.8512 41.2007 64.8916 41.2007 64.9454V65.08C41.2007 65.1473 41.2546 65.2012 41.3084 65.2012ZM50.1635 65.4031C51.873 65.4031 53.0306 64.4878 53.0306 62.7379C53.0306 59.7497 48.7233 59.4402 48.7233 57.5288C48.7233 56.9096 49.1809 56.2366 50.0693 56.277C51.0923 56.3308 51.9941 57.475 52.2903 58.4979C52.3306 58.6325 52.3306 58.7133 52.4114 58.7133H52.5729C52.6402 58.7133 52.6537 58.6595 52.6537 58.5114C52.6268 57.798 52.6133 57.2865 52.5595 56.3308C52.546 56.2097 52.5056 56.0751 52.3979 56.0078C51.9941 55.7251 51.1192 55.577 50.4193 55.577C48.6964 55.577 47.4984 56.6404 47.4984 58.0403C47.4984 61.1631 52.0345 60.9477 51.6711 63.6129C51.5634 64.3532 50.9981 64.7166 50.1904 64.6628C48.7771 64.5685 47.8887 63.061 47.6734 61.7284C47.6599 61.6207 47.633 61.5669 47.5388 61.5669H47.4445C47.3503 61.5669 47.2965 61.6207 47.3099 61.7688C47.3234 62.6303 47.3907 63.8148 47.4311 64.3397C47.4445 64.4609 47.5388 64.582 47.6464 64.6628C48.1714 65.0531 49.0598 65.4031 50.1635 65.4031ZM55.488 65.2012H57.8705C57.9378 65.2012 57.9782 65.1473 57.9782 65.08V64.9454C57.9782 64.8916 57.9513 64.8512 57.9109 64.8377C57.4936 64.7166 57.4263 64.5685 57.4129 64.232V57.1519C57.4263 56.7885 57.4936 56.6269 57.8974 56.6269H58.0859C58.9877 56.6269 59.4454 57.3807 59.8088 58.4172C59.8223 58.4576 59.8761 58.4979 59.9299 58.4979H60.0376C60.1184 58.4979 60.1318 58.4441 60.1184 58.3633L59.8626 55.9809C59.8492 55.8597 59.7415 55.7789 59.6338 55.7789H53.7247C53.6036 55.7789 53.5094 55.8597 53.4959 55.9809L53.2267 58.3633C53.2132 58.4441 53.2402 58.4979 53.3075 58.4979H53.4286C53.4824 58.4979 53.5363 58.4576 53.5497 58.4172C53.9132 57.3807 54.3708 56.6269 55.2727 56.6269H55.4611C55.8649 56.6269 55.9322 56.7885 55.9457 57.1519V64.232C55.9322 64.5685 55.8649 64.7166 55.4476 64.8377C55.4073 64.8512 55.3669 64.8916 55.3669 64.9454V65.08C55.3669 65.1473 55.4207 65.2012 55.488 65.2012ZM60.5791 65.2012H63.1904C63.2577 65.2012 63.2981 65.1473 63.2981 65.08V64.9454C63.2981 64.8916 63.2711 64.8512 63.2173 64.8377C62.6789 64.6762 62.5039 64.4878 62.5039 63.8282V61.3919H63.3519C65.344 61.3919 66.7574 60.4362 66.7574 58.5787C66.7574 56.7212 65.344 55.7789 63.3519 55.7789H60.5791C60.5118 55.7789 60.4579 55.8193 60.4579 55.8866V56.0347C60.4579 56.0751 60.4983 56.1289 60.5387 56.1424C60.956 56.2635 61.0233 56.3981 61.0367 56.7346V64.232C61.0233 64.5685 60.956 64.7166 60.5387 64.8377C60.4983 64.8512 60.4579 64.8916 60.4579 64.9454V65.08C60.4579 65.1473 60.5118 65.2012 60.5791 65.2012ZM62.5039 60.0055V57.1519C62.5174 56.7885 62.5847 56.6269 62.9885 56.6269H63.15C64.3614 56.6269 65.2363 57.3269 65.2363 58.5787C65.2363 59.8305 64.3614 60.5439 63.15 60.5439H62.9885C62.5847 60.5439 62.5174 60.3689 62.5039 60.0055ZM70.9172 65.2012H73.2459C73.3132 65.2012 73.3536 65.1608 73.3536 65.0935V64.9454C73.3536 64.905 73.3266 64.8512 73.2728 64.8377C72.869 64.7166 72.8017 64.582 72.7882 64.2455V55.8732C72.7882 55.6174 72.5863 55.4963 72.2902 55.6443L70.5673 56.452C70.5 56.4789 70.4596 56.5058 70.4596 56.5731V56.7346C70.4596 56.8019 70.4865 56.8423 70.5942 56.8423C71.1999 56.8423 71.3749 57.0442 71.3749 57.4346V64.2455C71.3614 64.582 71.2941 64.7166 70.8769 64.8377C70.8365 64.8512 70.8096 64.905 70.8096 64.9454V65.0935C70.8096 65.1608 70.8499 65.2012 70.9172 65.2012ZM77.2555 65.4031C79.1534 65.4031 80.3917 64.084 80.3917 62.5764C80.3917 61.6611 79.8264 60.8535 78.4669 60.0055C79.0591 59.6824 79.9879 58.8883 79.9879 57.7038C79.9879 56.4116 78.7226 55.577 77.3093 55.577C75.8018 55.577 74.5096 56.5866 74.5096 57.9326C74.5096 58.8614 75.0211 59.4402 75.8556 60.0863C74.7115 60.6247 73.8904 61.5534 73.8904 62.6841C73.8904 64.2859 75.223 65.4031 77.2555 65.4031ZM75.4518 62.7918C75.4518 61.8226 75.9633 60.9881 76.4478 60.4901C77.7939 61.365 78.8169 62.0649 78.8169 63.0879C78.8169 63.9224 78.2111 64.6493 77.2555 64.6493C76.1383 64.6493 75.4518 63.7744 75.4518 62.7918ZM75.9094 57.5288C75.9094 56.7481 76.5421 56.2904 77.3093 56.2904C78.1438 56.2904 78.6553 56.8019 78.6553 57.5961C78.6553 58.3499 78.2784 59.1575 77.8477 59.5613C77.1209 59.1036 75.9094 58.3364 75.9094 57.5288ZM84.1264 65.4031C86.132 65.4031 87.1685 63.7475 87.1685 62.2264C87.1685 60.6112 86.1859 59.2517 84.4091 59.2517C83.6419 59.2517 82.9958 59.5613 82.6323 59.8843C82.9285 58.5652 83.8303 57.125 86.1724 56.1962C86.2666 56.1558 86.307 56.0482 86.2532 55.9539L86.0916 55.6309C86.0513 55.5636 85.9705 55.5232 85.8897 55.5501C83.0496 56.5193 80.9229 58.5114 80.9229 61.7553C80.9229 63.7744 82.1478 65.4031 84.1264 65.4031ZM82.5785 60.7593C82.9419 60.3555 83.5073 60.0189 84.0726 60.0189C85.0552 60.0189 85.6071 61.0285 85.6071 62.2264C85.6071 63.4379 85.0821 64.6493 84.1264 64.6493C82.6593 64.6493 82.2824 62.7514 82.5785 60.7593ZM88.7214 65.4165C91.5616 64.4474 93.6883 62.4553 93.6883 59.1979C93.6883 57.1923 92.45 55.577 90.4847 55.577C88.4792 55.577 87.4427 57.2192 87.4427 58.7402C87.4427 60.342 88.4253 61.7149 90.2021 61.7149C90.9693 61.7149 91.6154 61.3919 91.9654 61.0689C91.6693 62.4014 90.7809 63.8282 88.4388 64.7704C88.3446 64.7974 88.3042 64.9185 88.3446 64.9993L88.5195 65.3223C88.5599 65.4031 88.6407 65.4435 88.7214 65.4165ZM89.0041 58.7402C89.0041 57.5288 89.5156 56.3174 90.4847 56.3174C91.9519 56.3174 92.3288 58.2018 92.0327 60.2074C91.6693 60.6112 91.1039 60.9477 90.5386 60.9477C89.556 60.9477 89.0041 59.9382 89.0041 58.7402Z" fill="#F40402"/>
</svg>
