<svg width="16" height="16" viewBox="0 0 16 16" fill="none" xmlns="http://www.w3.org/2000/svg">
<rect width="16" height="16" fill="#1E344F"/>
<path fill-rule="evenodd" clip-rule="evenodd" d="M7.51654 5.01479C7.5014 5.02512 7.50054 5.05264 7.5134 5.11551C7.52313 5.16308 7.53807 5.2626 7.5466 5.33667C7.5671 5.51464 7.56631 8.71412 7.54574 8.838C7.53696 8.8909 7.52452 8.96231 7.51807 8.99671L7.50638 9.05923H7.97645H8.44652L8.43399 8.96785C8.42709 8.91758 8.41449 8.85643 8.40596 8.83194C8.39743 8.80745 8.39044 8.00924 8.39044 7.05817C8.39044 5.58313 8.39441 5.31264 8.41738 5.21814C8.43219 5.15719 8.44432 5.08319 8.44432 5.05367V5L7.99085 5.00029C7.74146 5.00046 7.52802 5.00698 7.51654 5.01479ZM6.49577 5.0586C6.45626 5.06756 6.32292 5.08438 6.19945 5.09596C5.9291 5.12133 5.7698 5.1415 5.50804 5.18347C5.39938 5.2009 5.262 5.22176 5.20273 5.22984C5.02952 5.25342 4.82996 5.29009 4.77044 5.30927C4.74011 5.31904 4.69162 5.32716 4.66269 5.32732C4.63376 5.32745 4.59116 5.33301 4.56801 5.33965C4.51959 5.35354 4.52096 5.37911 4.58017 5.56752C4.61772 5.68701 4.67295 5.99417 4.67295 6.08353C4.67295 6.11156 4.68079 6.17141 4.69038 6.21654C4.69996 6.26165 4.71714 6.37216 4.72853 6.46209C4.73993 6.55203 4.75584 6.67323 4.76391 6.73143C4.79979 6.99037 4.83727 7.27113 4.8525 7.39514C4.86162 7.46921 4.87418 7.55145 4.88044 7.5779C4.88669 7.60435 4.8988 7.6866 4.90733 7.76066C4.91586 7.83473 4.93583 7.99056 4.9517 8.10695C4.9676 8.22334 4.98739 8.37051 4.99572 8.434C5.00405 8.49748 5.0248 8.64465 5.04184 8.76104C5.05888 8.87743 5.07636 9.05275 5.08065 9.15061C5.08948 9.35194 5.08058 9.34398 5.25661 9.30783C5.41203 9.27591 5.87664 9.20485 6.07374 9.18284C6.11819 9.17788 6.21921 9.16456 6.29823 9.15323C6.42577 9.13495 6.59674 9.11868 7.01454 9.08505L7.13818 9.07511L7.12511 8.85075C7.0969 8.36666 7.08799 8.25383 7.07707 8.24219C7.07082 8.23556 7.03542 8.24833 6.99839 8.27061C6.86558 8.35052 6.6889 8.39556 6.397 8.42393C6.31304 8.43209 6.1494 8.44998 6.03337 8.46368C5.91734 8.47738 5.81702 8.48282 5.81044 8.47578C5.80387 8.46876 5.79225 8.4002 5.78462 8.32345C5.77697 8.24669 5.75732 8.08434 5.74093 7.96266C5.72453 7.84098 5.70988 7.68515 5.70835 7.61638L5.70558 7.49133L5.76844 7.48666C5.80301 7.4841 5.93143 7.4678 6.05382 7.45043C6.20215 7.4294 6.34458 7.42209 6.48085 7.42854L6.68533 7.4382L6.67342 7.15695C6.66689 7.00228 6.65455 6.86113 6.646 6.84332C6.63745 6.82548 6.63047 6.7584 6.63047 6.69422C6.63047 6.5765 6.61084 6.54853 6.56366 6.59907C6.54047 6.62391 6.42417 6.65428 6.30721 6.66604C6.26276 6.67052 6.12941 6.68666 6.01088 6.70192C5.59187 6.75588 5.60792 6.75607 5.58623 6.69695C5.57572 6.66829 5.55994 6.5756 5.55115 6.49095C5.54237 6.4063 5.52556 6.2472 5.51382 6.13737C5.49372 5.94963 5.49446 5.93614 5.52612 5.91133C5.54463 5.89682 5.58948 5.88495 5.62576 5.88495C5.66201 5.88495 5.73523 5.87566 5.78845 5.86431C6.03621 5.81146 6.60105 5.7803 6.77414 5.80992L6.81904 5.81762L6.81252 5.49661C6.80892 5.32006 6.80054 5.14692 6.79389 5.11185C6.7819 5.04869 6.78078 5.04808 6.6747 5.04519C6.61579 5.04359 6.53528 5.04963 6.49577 5.0586ZM9.38741 5.05727C9.38039 5.06945 9.37944 5.14594 9.38529 5.22728C9.3914 5.31206 9.3843 5.49415 9.36864 5.65409C9.35365 5.80752 9.33413 6.01312 9.32529 6.111C9.31644 6.20886 9.30426 6.31302 9.29823 6.34245C9.29219 6.37191 9.27935 6.47795 9.26971 6.57814C9.26005 6.67831 9.23959 6.87716 9.22423 7.02C9.20888 7.16284 9.18954 7.34464 9.18124 7.424C9.17295 7.50335 9.15265 7.68948 9.13613 7.83762C9.11961 7.98575 9.09926 8.18053 9.09091 8.27047C9.06248 8.57655 8.99754 8.93559 8.9641 8.9717C8.95478 8.98174 8.94717 9.00923 8.94717 9.03276C8.94717 9.07249 8.95711 9.07622 9.08635 9.08499C9.28971 9.09879 9.60784 9.13009 9.7053 9.14586L9.78998 9.1596L9.78039 8.96993C9.77074 8.77949 9.78423 8.57118 9.83618 8.10695C9.86873 7.81638 9.88626 7.64978 9.91515 7.35666C9.92663 7.24027 9.94385 7.10813 9.95342 7.06301C9.96299 7.01788 9.97082 6.94214 9.97082 6.89468C9.97082 6.80888 9.99871 6.77771 10.0179 6.84205C10.0234 6.86055 10.0342 6.89303 10.0418 6.91419C10.0494 6.93535 10.0698 7.00461 10.0871 7.06809C10.1045 7.13158 10.1247 7.20084 10.132 7.222C10.1449 7.25909 10.1716 7.3537 10.2326 7.5779C10.2484 7.6361 10.2676 7.70103 10.2752 7.72219C10.2884 7.75899 10.3133 7.84652 10.3763 8.07809C10.3921 8.13629 10.4116 8.20122 10.4196 8.22238C10.4276 8.24354 10.4476 8.3128 10.464 8.37628C10.4803 8.43977 10.5013 8.50674 10.5106 8.52511C10.5199 8.54348 10.5275 8.56866 10.5275 8.58105C10.5275 8.61241 10.6338 8.98444 10.6544 9.0253C10.6636 9.04367 10.6712 9.07626 10.6712 9.09771C10.6712 9.11916 10.6784 9.15175 10.6872 9.17012C10.6961 9.18849 10.7117 9.22659 10.7221 9.25477C10.7389 9.30071 10.7531 9.30742 10.8589 9.31956C10.9239 9.32701 10.9814 9.34074 10.9868 9.35008C10.9922 9.35941 11.0227 9.36704 11.0546 9.36704C11.0865 9.36704 11.1568 9.3792 11.2107 9.39407C11.2646 9.40894 11.3441 9.4241 11.3872 9.42774L11.4657 9.43438L11.4687 9.22276C11.4714 9.03207 11.4885 8.89209 11.5333 8.69371C11.5417 8.65668 11.561 8.55712 11.5763 8.47247C11.6054 8.31107 11.609 8.29135 11.6521 8.05885C11.6668 7.9795 11.6858 7.87561 11.6943 7.828C11.7028 7.78038 11.7226 7.67432 11.7382 7.59233C11.7539 7.51034 11.7795 7.37613 11.7952 7.29414C11.8228 7.14959 11.8354 7.08062 11.8721 6.87306C11.8818 6.81871 11.8983 6.7408 11.9089 6.69991C11.9195 6.65905 11.9282 6.59799 11.9282 6.56423C11.9283 6.53047 11.9353 6.49824 11.9438 6.49262C11.9522 6.48701 11.9647 6.43239 11.9714 6.37125C11.9781 6.31011 11.9908 6.22979 11.9997 6.19276C12.0085 6.15573 12.0291 6.05617 12.0454 5.97152C12.0616 5.88688 12.0835 5.79598 12.0939 5.76952C12.1405 5.65175 12.1718 5.58628 12.1843 5.58036C12.2093 5.56845 12.1979 5.52364 12.1663 5.50929C12.149 5.50144 12.1025 5.48807 12.063 5.47959C12.0235 5.4711 11.9265 5.44986 11.8475 5.43241C11.7685 5.41495 11.6675 5.3933 11.623 5.3843C11.5786 5.3753 11.5059 5.35912 11.4614 5.34832C11.417 5.33755 11.3745 5.32836 11.3671 5.32789C11.3597 5.32743 11.3535 5.39848 11.3533 5.48576C11.3531 5.57304 11.3404 5.71373 11.3251 5.79838C11.2931 5.97568 11.2513 6.21717 11.2285 6.35628C11.2198 6.40919 11.1996 6.53039 11.1834 6.62562C11.144 6.85834 11.1292 6.94737 11.1037 7.10657C11.0918 7.18064 11.0751 7.26721 11.0666 7.29895C11.0581 7.33069 11.0459 7.40916 11.0394 7.47334C11.0187 7.67827 10.9967 7.67009 10.9321 7.43362C10.9147 7.37013 10.8941 7.30087 10.8862 7.27971C10.8784 7.25855 10.859 7.19362 10.8432 7.13543C10.7814 6.90817 10.7554 6.81648 10.7424 6.77952C10.693 6.63912 10.6712 6.56125 10.6712 6.52512C10.6712 6.50228 10.6641 6.47885 10.6553 6.47306C10.6465 6.46727 10.6339 6.43106 10.6271 6.39261C10.6204 6.35415 10.6084 6.30861 10.6004 6.29139C10.5924 6.27418 10.5718 6.20815 10.5546 6.14467C10.5374 6.08118 10.5174 6.01192 10.51 5.99076C10.5027 5.9696 10.4825 5.90034 10.4651 5.83686C10.4478 5.77337 10.4272 5.70411 10.4193 5.68295C10.4115 5.66179 10.3921 5.59686 10.3763 5.53867C10.2595 5.10906 10.2729 5.13467 10.1643 5.13467C10.116 5.13467 10.0426 5.12611 10.0012 5.11564C9.95981 5.10517 9.82491 5.08859 9.70144 5.0788C9.57797 5.06899 9.45968 5.05516 9.43857 5.04804C9.41638 5.04057 9.39481 5.04446 9.38741 5.05727ZM3.50562 5.606C3.47105 5.62025 3.41785 5.63259 3.38739 5.63339C3.35694 5.6342 3.32596 5.64134 3.31856 5.64927C3.31116 5.65719 3.26333 5.67493 3.21229 5.68867C3.16126 5.7024 3.09122 5.72145 3.05664 5.73099C3.02207 5.74053 2.95338 5.75925 2.90399 5.77258C2.813 5.79715 2.7693 5.82691 2.7693 5.86435C2.7693 5.87568 2.77738 5.88495 2.78726 5.88495C2.79714 5.88495 2.80522 5.89338 2.80522 5.90367C2.80522 5.91396 2.82462 5.96806 2.84832 6.02391C2.89076 6.12385 2.91631 6.20509 2.97709 6.43324C2.994 6.49672 3.01394 6.57031 3.02141 6.59676C3.02888 6.62321 3.04856 6.6968 3.06516 6.76028C3.08173 6.82377 3.10176 6.89303 3.10966 6.91419C3.1404 6.99664 3.18236 7.16996 3.18236 7.21451C3.18236 7.26321 3.18282 7.26299 2.94889 7.32683C2.91432 7.33627 2.84159 7.35809 2.78726 7.37531C2.5509 7.45026 2.50568 7.46361 2.45053 7.47486C2.41844 7.4814 2.39216 7.49427 2.39216 7.50347C2.39216 7.51267 2.37083 7.52019 2.34475 7.52019C2.29106 7.52019 2.24991 7.47313 2.24907 7.4107C2.24875 7.38752 2.24133 7.3638 2.23256 7.35801C2.22382 7.35222 2.21114 7.31601 2.2044 7.27756C2.19767 7.2391 2.1856 7.19356 2.17759 7.17635C2.16958 7.15913 2.14925 7.09743 2.13241 7.03924C2.11556 6.98104 2.09547 6.91611 2.08774 6.89495C2.01235 6.68822 1.92523 6.32595 1.92523 6.21917C1.92523 6.16589 1.91701 6.13424 1.90278 6.13283C1.85798 6.12841 1.80812 6.13876 1.79144 6.15594C1.78205 6.16562 1.76184 6.17358 1.74654 6.17364C1.73122 6.17371 1.69556 6.1867 1.66727 6.2025C1.63897 6.21831 1.60106 6.23124 1.58303 6.23124C1.56498 6.23124 1.54522 6.23989 1.53912 6.25047C1.53301 6.26106 1.51557 6.26971 1.50036 6.26971C1.48515 6.26971 1.44724 6.28153 1.41612 6.29595C1.36082 6.3216 1.32408 6.3371 1.11229 6.42423C1.05532 6.44767 1.00504 6.47321 1.00053 6.48102C0.996022 6.48885 1.02081 6.53756 1.05561 6.58928C1.11098 6.67156 1.13894 6.72823 1.20646 6.89495C1.21503 6.91611 1.23565 6.97671 1.25228 7.02962C1.26891 7.08252 1.28906 7.14312 1.29707 7.16428C1.30508 7.18545 1.31565 7.22007 1.32057 7.24124C1.32925 7.27862 1.35969 7.37467 1.38763 7.45285C1.39519 7.47402 1.41529 7.53894 1.4323 7.59714C1.4493 7.65534 1.4698 7.72026 1.47784 7.74143C1.48589 7.76259 1.52938 7.9011 1.57451 8.04923C1.61964 8.19737 1.66449 8.33359 1.67417 8.35197C1.68385 8.37034 1.69177 8.3986 1.69177 8.41476C1.69177 8.43092 1.69922 8.45918 1.70834 8.47755C1.71747 8.49592 1.75326 8.60618 1.78788 8.72257C1.87093 9.00162 1.92649 9.17747 1.9431 9.21377C1.95052 9.22999 1.96259 9.27328 1.96992 9.30996C1.97726 9.34665 1.98872 9.38532 1.99538 9.3959C2.00204 9.40648 2.02225 9.46708 2.04028 9.53057C2.05833 9.59405 2.07957 9.66331 2.08753 9.68447C2.13494 9.81081 2.1587 9.92714 2.1587 10.033C2.1587 10.0993 2.16709 10.1591 2.17734 10.1659C2.19341 10.1765 2.47603 10.0841 2.5538 10.0428C2.56861 10.035 2.68782 9.99097 2.81869 9.94509C2.94956 9.89923 3.05664 9.85307 3.05664 9.84255C3.05664 9.83201 3.0324 9.78118 3.00277 9.7296C2.97314 9.67801 2.94889 9.62295 2.94889 9.60723C2.94889 9.59151 2.94081 9.57866 2.93093 9.57866C2.92105 9.57866 2.91297 9.56916 2.91297 9.55752C2.91297 9.5459 2.90168 9.5091 2.88785 9.47576C2.87404 9.44242 2.8487 9.36752 2.83153 9.30933C2.81436 9.25113 2.79401 9.18621 2.78633 9.16504C2.77864 9.14388 2.75856 9.07895 2.74172 9.02076C2.72487 8.96256 2.70501 8.90167 2.69757 8.88546C2.69016 8.86924 2.67798 8.82624 2.67053 8.7899C2.66308 8.75356 2.65079 8.71056 2.64321 8.69434C2.6136 8.63096 2.51547 8.28783 2.52145 8.26861C2.5289 8.24464 2.70686 8.17582 2.76375 8.17492C2.78539 8.17457 2.80766 8.16638 2.81323 8.15672C2.81881 8.14706 2.85735 8.133 2.89891 8.12548C2.94045 8.11797 2.98687 8.10516 3.00209 8.09704C3.04878 8.07207 3.22822 8.02038 3.26818 8.02038C3.28896 8.02038 3.31094 8.01172 3.31705 8.00114C3.32315 7.99056 3.34787 7.9819 3.37198 7.9819C3.40395 7.9819 3.41582 7.99239 3.41582 8.02065C3.41582 8.04194 3.42344 8.07442 3.43272 8.09279C3.44202 8.11116 3.46305 8.17813 3.47947 8.24162C3.49588 8.3051 3.51591 8.37869 3.52399 8.40514C3.53205 8.43159 3.55217 8.50518 3.56865 8.56866C3.58516 8.63215 3.61005 8.71901 3.62397 8.76168C3.6379 8.80437 3.64929 8.85673 3.64929 8.87807C3.64929 8.89942 3.65653 8.92511 3.66536 8.93515C3.69717 8.97133 3.75361 9.28684 3.76629 9.49936C3.77031 9.56685 3.7769 9.62558 3.78091 9.62989C3.78852 9.63803 3.85291 9.62251 4.0354 9.56856C4.09467 9.55104 4.17548 9.53218 4.21499 9.52666C4.2545 9.52114 4.29545 9.50919 4.30597 9.50013C4.3165 9.49105 4.37127 9.47784 4.4277 9.47072C4.48413 9.46362 4.53457 9.45036 4.53982 9.44128C4.54506 9.4322 4.57715 9.42476 4.61115 9.42476C4.65254 9.42476 4.67295 9.41573 4.67295 9.39746C4.67295 9.36977 4.61932 9.25006 4.59901 9.2324C4.57898 9.21499 4.4754 8.86862 4.4754 8.81908C4.4754 8.79246 4.46823 8.77066 4.45947 8.77066C4.45072 8.77066 4.43971 8.74687 4.43503 8.71776C4.42413 8.65027 4.38474 8.48409 4.36775 8.434C4.36059 8.41283 4.34089 8.34358 4.32399 8.28009C4.30709 8.21661 4.28266 8.12571 4.2697 8.07809C4.25675 8.03048 4.23611 7.95256 4.22387 7.90495C4.17924 7.73142 4.14925 7.62515 4.13425 7.58752C4.12583 7.56636 4.11475 7.5274 4.10966 7.50095C4.09641 7.43225 4.05985 7.28645 4.04451 7.24124C4.03733 7.22007 4.0182 7.15299 4.002 7.09214C3.92429 6.80026 3.91269 6.75701 3.90021 6.71219C3.89283 6.68574 3.87288 6.60782 3.85585 6.53905C3.83883 6.47027 3.81819 6.39668 3.80998 6.37552C3.80178 6.35436 3.7896 6.30675 3.78296 6.26971C3.77629 6.23268 3.7648 6.19372 3.7574 6.18314C3.74998 6.17256 3.73883 6.12927 3.7326 6.08695C3.72639 6.04463 3.71365 5.96671 3.70431 5.91381C3.69498 5.8609 3.68686 5.76352 3.68628 5.69738L3.68521 5.57714L3.62684 5.5786C3.59473 5.57941 3.54019 5.59174 3.50562 5.606ZM12.9148 5.81281C12.9035 5.85779 12.8876 5.91188 12.8796 5.93305C12.8479 6.01681 12.8083 6.16302 12.8083 6.19618C12.8083 6.21546 12.8013 6.23124 12.7927 6.23124C12.784 6.23124 12.7718 6.26625 12.7654 6.30904C12.759 6.35182 12.7438 6.40428 12.7317 6.42564C12.6977 6.48528 12.7484 6.51219 12.9203 6.52581C13.002 6.53227 13.093 6.54599 13.1226 6.55632C13.1522 6.56663 13.225 6.58983 13.2842 6.60786C13.3435 6.62589 13.4082 6.64686 13.4279 6.65447C13.4477 6.66209 13.5123 6.68339 13.5716 6.7018C13.6308 6.72019 13.6917 6.74195 13.7069 6.75015C13.722 6.75832 13.7621 6.77154 13.7961 6.77952C13.83 6.78751 13.8701 6.80072 13.8853 6.8089C13.9004 6.81709 13.9593 6.83943 14.0161 6.85853C14.0729 6.87766 14.1193 6.90318 14.1193 6.91529C14.1193 6.92739 14.0691 6.98402 14.0077 7.04116C13.9463 7.0983 13.875 7.16669 13.8492 7.19314C13.8235 7.21959 13.7469 7.29318 13.679 7.35666C13.6112 7.42015 13.535 7.49249 13.5098 7.5174C13.4669 7.55966 13.2812 7.7401 13.0698 7.94491C13.0198 7.99333 12.9475 8.06259 12.909 8.09881C12.8706 8.13504 12.806 8.19787 12.7654 8.23844C12.7248 8.27901 12.6522 8.34827 12.6041 8.39235C12.556 8.43642 12.4698 8.52009 12.4126 8.57828C12.2895 8.70344 12.0824 8.90256 12.0442 8.93249C12.0046 8.96349 12.0137 9.5767 12.0541 9.59905C12.0788 9.61277 12.1863 9.64615 12.3683 9.69661C12.5147 9.73718 12.6385 9.77624 12.6653 9.7903C12.6806 9.79825 12.727 9.81092 12.7685 9.81843C12.8101 9.82595 12.8486 9.84001 12.8542 9.84967C12.8598 9.85933 12.8876 9.86723 12.9161 9.86723C12.9445 9.86723 12.9723 9.87491 12.9777 9.8843C12.9831 9.89367 13.0169 9.90725 13.0528 9.91446C13.0887 9.92168 13.1312 9.9346 13.1473 9.94318C13.1984 9.97048 13.3549 10.0213 13.3875 10.0212C13.4048 10.0212 13.4189 10.0298 13.4189 10.0404C13.4189 10.051 13.4359 10.0596 13.4566 10.0596C13.4774 10.0596 13.5198 10.0718 13.5509 10.0866C13.628 10.1234 13.8566 10.2135 13.8728 10.2135C13.88 10.2135 13.8859 10.2005 13.8859 10.1847C13.8859 10.1688 13.8939 10.1558 13.9038 10.1558C13.9137 10.1558 13.9218 10.1435 13.9218 10.1285C13.9218 10.1033 13.973 9.98557 13.9936 9.96342C14.0136 9.94195 14.0655 9.82395 14.0655 9.79994C14.0655 9.78582 14.0715 9.77137 14.0789 9.76783C14.0997 9.75796 14.209 9.50706 14.2138 9.45833C14.2177 9.4187 14.21 9.41477 14.1193 9.41081C13.9722 9.40435 13.7859 9.36814 13.6344 9.31656C13.5604 9.29134 13.4593 9.25702 13.41 9.24028C13.3606 9.22357 13.304 9.20315 13.2842 9.19496C13.2645 9.18676 13.1998 9.16433 13.1406 9.14509C13.0009 9.09981 12.9901 9.08799 13.0431 9.03882C13.2428 8.85337 13.4616 8.64381 13.5541 8.54942C13.5955 8.5071 13.6685 8.43784 13.7163 8.39552C13.764 8.3532 13.8342 8.28611 13.8722 8.24643C13.9101 8.20674 13.9455 8.17428 13.9509 8.17428C13.9562 8.17428 13.9906 8.14183 14.0275 8.10214C14.0643 8.06247 14.1335 7.99537 14.1812 7.95304C14.229 7.91072 14.3026 7.84146 14.3448 7.79914C14.4415 7.70218 14.6427 7.50791 14.7464 7.4113C14.7901 7.37067 14.865 7.29837 14.9129 7.25064L15 7.16388L14.9862 6.80907L14.9724 6.45424L14.9095 6.42106C14.875 6.40278 14.7537 6.35211 14.6401 6.30846C14.5265 6.26479 14.4205 6.22148 14.4044 6.21223C14.3883 6.20296 14.3459 6.18951 14.3101 6.18231C14.2743 6.17512 14.245 6.16154 14.245 6.15215C14.245 6.14274 14.2309 6.13476 14.2136 6.13441C14.1821 6.1338 14.0182 6.07704 13.9846 6.05511C13.9748 6.04867 13.9387 6.03693 13.9044 6.02904C13.8702 6.02118 13.8298 6.00804 13.8146 5.99986C13.7995 5.99167 13.7386 5.96991 13.6793 5.95152C13.6201 5.9331 13.5554 5.91194 13.5357 5.9045C13.4189 5.86048 13.3115 5.82724 13.2861 5.82724C13.27 5.82724 13.2428 5.81979 13.2256 5.81071C13.1697 5.78107 13.0109 5.73105 12.9728 5.73105C12.9441 5.73105 12.9307 5.74998 12.9148 5.81281ZM5.55293 10.723V11.0785L5.59787 11.0906C5.63111 11.0995 5.94594 11.0913 5.97946 11.0807C5.98192 11.0799 5.98395 11.045 5.98395 11.0031V10.927L5.85374 10.9214L5.72354 10.9157V10.858C5.72354 10.8008 5.72455 10.8002 5.84027 10.7907L5.95701 10.781V10.7137V10.6464L5.84027 10.6368C5.73013 10.6277 5.72354 10.6244 5.72354 10.579C5.72354 10.5333 5.72922 10.5307 5.83981 10.5251C5.96365 10.5189 5.98323 10.5046 5.98368 10.4203L5.98395 10.3674H5.76844H5.55293V10.723ZM6.25471 10.4266C6.20811 10.4765 6.19945 10.5005 6.19945 10.5796C6.19945 10.7198 6.23652 10.7519 6.4868 10.8283C6.51878 10.838 6.53169 10.8553 6.53169 10.8884C6.53169 10.927 6.52155 10.936 6.4725 10.941C6.43761 10.9446 6.37951 10.9296 6.33106 10.9045C6.25723 10.8662 6.24715 10.865 6.23271 10.8926C6.22386 10.9096 6.20515 10.9357 6.19112 10.9507C6.1691 10.9743 6.17099 10.983 6.205 11.0142C6.26109 11.0657 6.35909 11.0985 6.45722 11.0985C6.62339 11.0985 6.72026 11.0151 6.72026 10.8719C6.72026 10.7666 6.64711 10.6919 6.50158 10.6485C6.38536 10.6139 6.3576 10.5919 6.37365 10.5471C6.38603 10.5126 6.50517 10.5139 6.56887 10.5493C6.61728 10.5762 6.62061 10.5749 6.65879 10.5156C6.68059 10.4817 6.6951 10.448 6.69102 10.4408C6.66773 10.3992 6.5593 10.3674 6.44052 10.3674C6.31868 10.3674 6.30627 10.3714 6.25471 10.4266ZM6.81033 10.4203C6.81074 10.4997 6.82968 10.5181 6.9181 10.5248L6.99862 10.5309L7.0076 10.8097C7.01737 11.1129 7.0198 11.1187 7.12576 11.0902L7.16923 11.0785V10.7999V10.5213H7.25005H7.33086V10.4444V10.3674H7.07046H6.81006L6.81033 10.4203ZM7.51045 10.6079V10.8484H7.59367C7.80065 10.8484 7.89946 10.7566 7.88355 10.5793C7.87712 10.5076 7.8623 10.472 7.8199 10.4266C7.76861 10.3717 7.75552 10.3674 7.63755 10.3674H7.51045V10.6079ZM8.33656 10.4334C8.33656 10.4872 8.34403 10.5006 8.37697 10.5056C8.41652 10.5116 8.41749 10.5177 8.42235 10.7952C8.42727 11.0766 8.42765 11.0788 8.47043 11.0904C8.49415 11.0967 8.5303 11.0963 8.55078 11.0893C8.58664 11.0771 8.58799 11.0639 8.58799 10.722V10.3674H8.46228H8.33656V10.4334ZM8.87977 10.4176C8.81871 10.4922 8.81208 10.5492 8.85538 10.6278C8.893 10.6961 8.893 10.6964 8.8575 10.7372C8.80464 10.798 8.79549 10.886 8.83252 10.9776C8.86764 11.0645 8.93384 11.0985 9.06779 11.0985C9.18478 11.0985 9.24975 11.0642 9.28903 10.9817C9.33511 10.8849 9.33355 10.8527 9.27858 10.766C9.23618 10.6991 9.23487 10.6908 9.26062 10.6514C9.30349 10.5859 9.29595 10.478 9.24435 10.4183C9.20391 10.3716 9.18884 10.3674 9.06027 10.3678C8.93255 10.3681 8.91667 10.3725 8.87977 10.4176ZM9.70144 10.3949C9.70144 10.41 9.69135 10.434 9.67899 10.4482C9.66665 10.4623 9.64099 10.5041 9.62197 10.5409C9.60297 10.5778 9.58277 10.6122 9.57707 10.6175C9.5406 10.6516 9.50389 10.769 9.50389 10.8518C9.50389 11.0212 9.58142 11.0985 9.75126 11.0985C9.85666 11.0985 9.97082 11.0392 9.97082 10.9844C9.97082 10.9731 9.9789 10.9638 9.98878 10.9638C10.0139 10.9638 10.0112 10.7893 9.98515 10.7301C9.96118 10.6757 9.8788 10.6175 9.8257 10.6175C9.779 10.6175 9.78238 10.5741 9.83613 10.4829C9.86082 10.441 9.88103 10.3978 9.88103 10.387C9.88103 10.3763 9.84062 10.3674 9.79123 10.3674C9.72538 10.3674 9.70144 10.3748 9.70144 10.3949ZM10.2271 10.4259C10.1007 10.5583 10.1474 10.7683 10.3165 10.8277C10.3536 10.8407 10.3839 10.8637 10.3839 10.8787C10.3839 10.8938 10.3778 10.9062 10.3704 10.9063C10.363 10.9064 10.3415 10.9411 10.3226 10.9833C10.3037 11.0255 10.2802 11.06 10.2702 11.06C10.2603 11.06 10.2578 11.066 10.2646 11.0733C10.2715 11.0807 10.3109 11.0885 10.3523 11.0908C10.4284 11.0949 10.4916 11.0498 10.4916 10.9913C10.4916 10.9779 10.498 10.9641 10.5057 10.9606C10.5134 10.9571 10.5538 10.896 10.5955 10.8248C10.6604 10.7138 10.6712 10.6805 10.6712 10.5906C10.6712 10.4992 10.6641 10.4782 10.616 10.4266C10.5638 10.3707 10.553 10.3674 10.4218 10.3674C10.2913 10.3674 10.2796 10.371 10.2271 10.4259ZM9.1052 10.4867C9.13703 10.5208 9.13186 10.6113 9.09728 10.6255C9.01776 10.6582 8.955 10.5672 9.01119 10.5007C9.04727 10.458 9.07462 10.4539 9.1052 10.4867ZM7.73401 10.5283C7.75922 10.5534 7.77984 10.584 7.77984 10.5964C7.77984 10.6435 7.7207 10.7137 7.68092 10.7137C7.63586 10.7137 7.61821 10.6812 7.61821 10.5983C7.61821 10.476 7.65745 10.4523 7.73401 10.5283ZM10.4909 10.5442C10.5377 10.5979 10.537 10.6092 10.4835 10.6665C10.4271 10.7269 10.3956 10.7261 10.3493 10.663C10.3032 10.6003 10.3031 10.5887 10.348 10.5406C10.3947 10.4905 10.4454 10.4918 10.4909 10.5442ZM9.81787 10.7835C9.85881 10.8273 9.84482 10.9032 9.78919 10.9392C9.74571 10.9673 9.73879 10.9668 9.69546 10.933C9.64146 10.8908 9.63481 10.8376 9.67729 10.7874C9.7141 10.7438 9.77915 10.742 9.81787 10.7835ZM9.10998 10.7913C9.14443 10.8111 9.15502 10.8742 9.13381 10.9334C9.12699 10.9524 9.10124 10.9638 9.06487 10.9638C8.98711 10.9638 8.94898 10.8872 8.99187 10.8172C9.0222 10.7676 9.05571 10.7602 9.10998 10.7913ZM7.60361 11.0263C7.60822 11.0778 7.61684 11.0889 7.65217 11.0889C7.70182 11.0889 7.73675 11.0409 7.72041 10.9953C7.71332 10.9755 7.68844 10.9638 7.65355 10.9638C7.60167 10.9638 7.59834 10.968 7.60361 11.0263Z" fill="#F8E9D4"/>
</svg>
